<?xml version="1.0" encoding="UTF-8"?>
<!DOCTYPE svg PUBLIC "-//W3C//DTD SVG 1.1//EN" "http://www.w3.org/Graphics/SVG/1.1/DTD/svg11.dtd">
<!-- Creator: CorelDRAW -->
<svg xmlns="http://www.w3.org/2000/svg" xml:space="preserve" width="65mm" height="75mm" style="shape-rendering:geometricPrecision; text-rendering:geometricPrecision; image-rendering:optimizeQuality; fill-rule:evenodd; clip-rule:evenodd"
viewBox="0 0 65 75">
 <defs>
  <style type="text/css">
   <![CDATA[
    .fil0 {fill:#B2B2B2}
   ]]>
  </style>
 </defs>
 <g id="Layer_x0020_1">
  <metadata id="CorelCorpID_0Corel-Layer"/>
  <path class="fil0" d="M9.6954 74.6151c1.6444,-4.2936 0.9513,-2.232 0.9513,-6.9093 -0.1568,-2.9011 -0.5419,-9.9029 0.2832,-13.1 -1.7538,-1.323 -5.775,-4.092 -8.441,-6.3491 -8.3581,-5.4739 7.837,-15.0673 13.4837,-21.2762 0.6029,-0.9135 2.1925,-2.5305 2.3478,-3.5536 -0.0914,0 -0.1736,0 -0.2558,0 -0.8953,-2.8594 -3.17,-3.1517 -2.6584,-6.2212 -0.2558,-0.0822 -0.5116,-0.1644 -0.7674,-0.2466 -0.0274,-1.8271 -0.0456,-3.645 -0.0639,-5.463 0.1553,-0.1644 0.1553,-0.1644 0.5755,-0.2466 2.1742,-12.5154 16.9917,-15.5575 23.1581,-4.1931 0.5024,1.6535 0.6303,2.4117 0.7582,2.5396 0.0183,-0.0914 0.0366,-0.1736 0.064,-0.2558 0.2192,0.0274 0.4385,0.0548 0.6577,0.0913 1.215,2.2839 1.8179,4.4855 1.8179,7.016 0.3929,2.6492 1.6444,4.9605 2.0555,7.6371 0.475,0.137 1.4342,1.5073 2.0646,1.9458 5.335,6.4405 14.2419,8.8156 18.0788,16.4254 4.4132,5.8498 -6.2405,12.0978 -9.9534,14.5039 -5.6273,1.69 -4.453,2.2503 -7.3033,7.4483 -3.5113,4.4011 -3.8384,10.6295 -6.7704,10.592l-30.0827 -0.3849zm28.1654 -24.6684c0.4842,-1.5895 1.5165,-3.5262 1.7723,-5.0792 2.1742,0.1279 2.6401,-3.0512 2.5396,-4.8235 -0.475,-0.0822 -0.7308,0.0731 -0.8861,0.5116 -0.0914,0 -0.1736,0 -0.2558,0 4.6316,-13.1549 -14.9454,-17.6038 -16.1147,-2.7954 -0.1279,0 -0.2558,0 -0.3746,0 -0.4933,1.6352 -0.0274,3.5537 0.1827,5.2072 0.4842,0.3288 0.6121,0.2923 1.2059,0.2557 -0.0457,1.9824 -0.4202,3.8552 -0.5024,5.8284 -1.215,-0.3563 -1.891,-2.1742 -3.8095,-2.6584 -1.5164,-3.0421 -6.9245,-2.768 -7.6736,-5.0153 2.2016,-3.1517 3.8185,-7.6645 6.687,-10.058 2.0098,-2.5031 3.7272,-3.7455 6.0659,-5.8009 0.9683,0 2.4208,0.2375 3.1699,-0.5116 -0.0456,-0.0457 -0.0913,-0.0822 -0.1279,-0.1188 1.8819,-0.3014 3.6999,-0.2375 5.6091,-0.2284 1.3886,2.9234 3.5628,3.6816 5.938,5.8101 5.5634,4.0378 8.1852,9.3181 12.9082,14.041 -2.6036,0.4751 -4.2296,1.4343 -6.1846,3.2157 -2.8045,0 -4.3027,0.3745 -6.5957,2.028 -1.5256,0 -1.5256,0 -3.5537,0.1918z"/>
 </g>
</svg>
