<?xml version="1.0" encoding="UTF-8"?>
<!DOCTYPE svg PUBLIC "-//W3C//DTD SVG 1.1//EN" "http://www.w3.org/Graphics/SVG/1.1/DTD/svg11.dtd">
<!-- Creator: CorelDRAW -->
<svg xmlns="http://www.w3.org/2000/svg" xml:space="preserve" width="495mm" height="88mm" style="shape-rendering:geometricPrecision; text-rendering:geometricPrecision; image-rendering:optimizeQuality; fill-rule:evenodd; clip-rule:evenodd"
viewBox="0 0 495 88"
 version="1.1"
 xmlns:xlink="http://www.w3.org/1999/xlink"
 enable-background="new -166.771 -53.386 453.543 226.771">
 <defs>
  <style type="text/css">
   <![CDATA[
    .fil0 {fill:#CCCED1}
   ]]>
  </style>
 </defs>
 <g id="Layer_x0020_1">
  <metadata id="CorelCorpID_0Corel-Layer"/>
  <path class="fil0" d="M69.3006 13.3099c-1.3669,0 -2.4751,1.1081 -2.4751,2.4751 0,1.3669 1.1082,2.475 2.4751,2.475 1.3669,0 2.475,-1.1081 2.475,-2.475 0,-1.367 -1.1081,-2.4751 -2.475,-2.4751zm178.202 0c-1.3669,0 -2.475,1.1081 -2.475,2.4751 0,1.3669 1.1081,2.475 2.475,2.475 1.367,0 2.4751,-1.1081 2.4751,-2.475 0,-1.367 -1.1081,-2.4751 -2.4751,-2.4751zm178.202 0c-1.3669,0 -2.475,1.1081 -2.475,2.4751 0,3.2557 4.9501,3.2557 4.9501,0 0,-1.367 -1.1082,-2.4751 -2.4751,-2.4751zm-410.854 -13.1944c-8.2014,0 -14.8501,3.3417 -14.8501,11.5383l0 26.7303 0 16.8301 0 18.8102c0,8.1976 6.6487,13.8601 14.8501,13.8601l103.547 0c1.0891,0 2.5493,-4.4463 3.155,-10.1289 0.251,-2.356 -0.4142,-3.7529 -3.2444,-3.5757 -2.2362,-0.1689 -6.3986,1.7959 -6.8936,1.8141l-87.6541 0.9944c-1.637,-0.0065 -3.9535,-2.3231 -3.9535,-3.9601 0,-1.637 2.317,-3.9535 3.9535,-3.9535l94.6367 0c1.089,0 2.5493,-4.4464 3.155,-10.1289 0.251,-2.3561 -0.4142,-3.7529 -3.2444,-3.5758 -2.2362,-0.1689 -6.3986,1.7959 -6.8936,1.8142l-87.6541 0.9943c-1.637,-0.0065 -3.9536,-2.323 -3.9536,-3.96 0,-1.637 2.317,-3.9535 3.9536,-3.9535l94.6367 0c1.089,0 2.5492,-4.4464 3.155,-10.129 0.251,-2.356 -0.4143,-3.7529 -3.2445,-3.5757 -2.2362,-0.1689 -6.3986,1.7959 -6.8936,1.8141l-87.6541 0.9944c-1.637,-0.0065 -3.9535,-2.3231 -3.9535,-3.9601 0,-1.6369 2.317,-3.9535 3.9535,-3.9535l209.882 0c1.637,0 3.9536,2.317 3.9536,3.9535 0,1.637 -2.317,3.9536 -3.9536,3.9601l-87.654 -0.9944c-0.4951,-0.0178 -4.6574,-1.983 -6.8936,-1.8141 -2.8298,-0.1767 -3.4955,1.2197 -3.2445,3.5757 0.6062,5.683 2.066,10.129 3.155,10.129l94.6367 0c1.637,0 3.9535,2.3169 3.9535,3.9535 0,1.637 -2.3169,3.9535 -3.9535,3.96l-87.6541 -0.9943c-0.495,-0.0178 -4.6574,-1.9831 -6.8936,-1.8142 -2.8298,-0.1767 -3.4954,1.2197 -3.2444,3.5758 0.6061,5.683 2.066,10.1289 3.155,10.1289l94.6367 0c1.637,0 3.9535,2.317 3.9535,3.9535 0,1.637 -2.317,3.9536 -3.9535,3.9601l-87.6541 -0.9944c-0.495,-0.0178 -4.6574,-1.983 -6.8936,-1.8141 -2.8298,-0.1768 -3.4954,1.2197 -3.2445,3.5757 0.6062,5.683 2.066,10.1289 3.155,10.1289l216.993 0c1.089,0 2.5493,-4.4463 3.155,-10.1289 0.251,-2.356 -0.4143,-3.7529 -3.2445,-3.5757 -2.2362,-0.1689 -6.3986,1.7959 -6.8936,1.8141l-87.6541 0.9944c-1.6369,-0.0065 -3.9535,-2.3231 -3.9535,-3.9601 0,-1.637 2.317,-3.9535 3.9535,-3.9535l94.6367 0c1.0891,0 2.5493,-4.4464 3.1551,-10.1289 0.2509,-2.3561 -0.4143,-3.7529 -3.2445,-3.5758 -2.2362,-0.1689 -6.3986,1.7959 -6.8936,1.8142l-87.6541 0.9943c-1.637,-0.0065 -3.9535,-2.323 -3.9535,-3.96 0,-1.637 2.317,-3.9535 3.9535,-3.9535l94.6367 0c1.089,0 2.5493,-4.4464 3.155,-10.129 0.251,-2.356 -0.4142,-3.7529 -3.2444,-3.5757 -2.2362,-0.1689 -6.3986,1.7959 -6.8936,1.8141l-87.6541 0.9944c-1.637,-0.0065 -3.9535,-2.3231 -3.9535,-3.9601 0,-1.6369 2.3169,-3.9535 3.9535,-3.9535l209.882 0c1.637,0 3.9535,2.317 3.9535,3.9535 0,1.637 -2.317,3.9536 -3.9535,3.9601l-87.6541 -0.9944c-0.495,-0.0178 -4.6574,-1.983 -6.8936,-1.8141 -2.8298,-0.1767 -3.4954,1.2197 -3.2445,3.5757 0.6058,5.683 2.066,10.129 3.1551,10.129l94.6366 0c1.637,0 3.9536,2.3169 3.9536,3.9535 0,1.637 -2.317,3.9535 -3.9536,3.96l-87.654 -0.9943c-0.495,-0.0178 -4.6574,-1.9831 -6.8936,-1.8142 -2.8298,-0.1767 -3.4955,1.2197 -3.2445,3.5758 0.6057,5.683 2.066,10.1289 3.155,10.1289l94.6367 0c1.637,0 3.9535,2.317 3.9535,3.9535 0,1.637 -2.3169,3.9536 -3.9535,3.9601l-87.6541 -0.9944c-0.495,-0.0178 -4.6574,-1.983 -6.8936,-1.8141 -2.8297,-0.1768 -3.4954,1.2197 -3.2444,3.5757 0.6057,5.683 2.066,10.1289 3.155,10.1289l103.547 0c8.2015,0 14.8502,-5.6617 14.8502,-13.8601l0 -18.8102 0 -10.1971 0 -33.3633c0,-7.7607 -5.9588,-11.168 -13.5523,-11.5093l-466.603 -0.029 0.0048 0z"/>
 </g>
</svg>
