<?xml version="1.0" encoding="UTF-8"?>
<!DOCTYPE svg PUBLIC "-//W3C//DTD SVG 1.1//EN" "http://www.w3.org/Graphics/SVG/1.1/DTD/svg11.dtd">
<!-- Creator: CorelDRAW -->
<svg xmlns="http://www.w3.org/2000/svg" xml:space="preserve" width="120" height="120" style="shape-rendering:geometricPrecision; text-rendering:geometricPrecision; image-rendering:optimizeQuality; fill-rule:evenodd; clip-rule:evenodd"
viewBox="400 40 130 130">
 <defs>
  <style type="text/css">
   <![CDATA[
    .fil0 {fill:#B2B2B2}
   ]]>
  </style>
 </defs>
 <g id="Layer_x0020_1">
  <metadata id="CorelCorpID_0Corel-Layer"/>
  <path class="fil0" d="M512.76 96.2937l0 -3.4214 -0.0719 -0.3606c-0.0509,-0.1262 -0.0884,-0.9944 -0.1183,-1.7004 -0.0157,-0.3758 -0.0304,-0.713 -0.0517,-0.9426 -0.131,-1.4091 -0.3161,-2.8043 -0.5528,-4.1601 -0.2347,-1.3426 -0.5257,-2.6832 -0.8718,-3.9974 -0.8619,-3.2724 -1.9536,-6.2527 -3.3059,-9.0802 -1.3546,-2.8332 -2.958,-5.4928 -4.8397,-8.1216l-0.0017 0.0012c-0.4847,-0.677 -1.4969,-1.9733 -2.4633,-3.1328 -0.7562,-0.9076 -1.4927,-1.7395 -1.9445,-2.1434 -0.1837,-0.164 -0.3318,-0.3181 -0.4923,-0.4852l-0.0021 0.0017 -0.2475 -0.2584c-0.1367,-0.1382 -0.252,-0.2473 -0.3644,-0.3531 -0.129,-0.1219 -0.2569,-0.2423 -0.3766,-0.368l-0.0041 -0.0037c-0.5275,-0.5508 -0.995,-0.959 -1.5368,-1.4322l-0.148 -0.1299 -0.1333 -0.1162c-0.5432,-0.4756 -1.0151,-0.889 -1.5861,-1.3478 -4.66,-3.7384 -9.9023,-6.6448 -15.5477,-8.5743 -5.5038,-1.882 -11.3958,-2.8355 -17.5116,-2.7284 -13.906,0.2436 -26.5095,6.0674 -35.6125,15.3539 -9.0508,9.2336 -14.6453,21.8921 -14.6257,35.8942 0.0069,4.8707 0.6928,9.5782 1.9663,14.0349l4.8113 0c-0.1679,-0.5277 -0.3281,-1.062 -0.4804,-1.6035 0.4664,-0.7519 1.2004,-1.7515 1.9804,-2.7239 0.8125,-1.0124 1.6579,-1.9765 2.2919,-2.5902l0.0037 0c0.1426,-0.1379 0.276,-0.2699 0.4018,-0.3948 0.2087,-0.2062 0.3982,-0.3938 0.57,-0.5521l0.0006 0.0005 3.1604 -2.7663 0.0012 0.0017c1.6804,-1.3746 3.5429,-2.7423 5.4753,-4.047 2.0655,-1.3945 4.2004,-2.7116 6.2714,-3.884 5.15,-2.9148 10.8088,-5.6538 16.6686,-8.0431 5.6508,-2.3042 11.471,-4.2766 17.1829,-5.7602 1.181,-0.3064 5.2458,-1.2878 8.6111,-1.9753 1.5342,-0.3132 2.9081,-0.5637 3.7558,-0.6563 0.3543,0.9317 0.9174,2.7781 1.451,4.6827 0.5285,1.8855 1.0182,3.7981 1.2411,4.9161l-0.13 0.0305c-0.262,0.0619 -0.5082,0.1206 -0.6603,0.1666l0 0.0037c-1.8399,0.5578 -3.428,1.3646 -4.8874,2.3327 -1.431,0.9498 -2.742,2.0591 -4.0498,3.241 -0.3879,0.3508 -1.0283,0.9814 -1.6343,1.6038 -0.5559,0.571 -1.1071,1.1612 -1.4374,1.5534 -1.5872,1.8872 -2.8259,3.4385 -4.0092,5.0308 -1.1904,1.6017 -2.339,3.2611 -3.7393,5.3549 -1.421,2.1248 -1.8606,2.8155 -3.3603,5.1677 -2.2502,3.5302 0.9356,-1.1026 -1.5192,2.3799l4.6302 0c2.5512,-3.7784 -1.4945,2.253 0.9275,-1.6062 1.0124,-1.6143 0.2906,-0.4454 1.3432,-2.0358 0.5367,-0.811 1.0747,-1.6236 1.6997,-2.5828 0.2103,-0.3232 0.4163,-0.6333 0.6064,-0.913 0.178,-0.262 0.3824,-0.5558 0.6078,-0.8732 0.9548,-1.3437 1.726,-2.4164 2.5468,-3.5002 0.7993,-1.0563 1.6267,-2.0937 2.6984,-3.3747 0.6955,-0.8308 1.4005,-1.6031 2.1298,-2.3384 0.7387,-0.7449 1.5075,-1.4594 2.3194,-2.1634 0.8903,-0.7729 2.3688,-1.8527 4.0092,-2.7016 0.8508,-0.44 1.7389,-0.8151 2.5968,-1.0447 0.049,0.2888 0.1025,0.5864 0.1555,0.883 0.0693,0.3869 0.1385,0.7724 0.1937,1.1237 0.2218,1.4034 0.4172,2.939 0.58,4.4939 0.1686,1.6158 0.2996,3.2366 0.3842,4.7391 0.1674,2.9648 0.2117,5.9673 0.113,8.9688 -0.1418,4.3122 0.079,-0.3817 -0.7148,3.8146l3.8941 0c0.7381,-4.153 0.503,0.569 0.6431,-3.7386 0.2036,-6.2617 -0.1915,-12.5764 -1.0902,-18.6209 -0.0466,-0.3133 -0.1234,-0.718 -0.2034,-1.1395 -0.0607,-0.3216 -0.1239,-0.6544 -0.1763,-0.9665 3.3619,0.0021 5.992,0.6446 8.0825,1.8128 2.2775,1.2727 3.9453,3.1946 5.25,5.6086 0.6298,1.1661 1.1459,2.4558 1.5617,3.8213 0.4541,1.4913 0.7933,3.0928 1.034,4.7359l0.0328 0.2218c0.2073,1.4051 0.5153,3.4923 0.2098,4.6047 -1.1802,4.3015 0.711,0.0869 -1.772,3.8069l5.4158 0c2.2601,-3.9732 -0.0107,0.5797 1.1313,-3.8214 0.342,-1.3171 0.6307,-2.6648 0.8621,-4.0121 0.2329,-1.3554 0.4143,-2.7471 0.5393,-4.1439 0.0211,-0.2363 0.0346,-0.5628 0.0487,-0.925 0.0277,-0.6924 0.0614,-1.5392 0.1146,-1.6738l0.0684 -0.3569zm-26.2371 -41.0229c0.2832,0.1746 0.5417,0.3381 0.7538,0.4784 -0.0975,0.1208 -0.208,0.2442 -0.3261,0.3669 -0.4433,0.46 -0.9658,0.873 -1.3536,1.1086 -0.7514,0.4574 -1.5939,0.7887 -2.4838,1.027 -0.9088,0.2425 -1.8696,0.3875 -2.8374,0.4689l-0.3772 0.0381 -0.0038 0 -0.0004 0c-0.0606,-0.0991 -0.1384,-0.2252 -0.279,-0.4381 -0.3247,-0.493 -0.6699,-0.9833 -1.0157,-1.4479 -0.3923,-0.5281 -0.7797,-1.0217 -1.1362,-1.4519 -1.1789,-1.4232 -2.4875,-2.8302 -3.9053,-4.1191 -0.9616,-0.8745 -1.9749,-1.6948 -3.0328,-2.4301l0.4041 0.0903c2.6993,0.6164 5.562,1.4962 7.1944,2.1087l-0.0006 0.0014c0.9306,0.3497 1.8181,0.7177 2.6713,1.1062 0.8514,0.3875 1.6955,0.8085 2.5405,1.2624 0.5442,0.2926 2.0404,1.1231 3.1878,1.8302zm-14.7845 -0.4621c1.2111,1.1791 2.3229,2.4603 3.3624,3.7961 -2.1989,-0.1731 -5.4092,-0.5295 -7.734,-0.7877 -0.7368,-0.082 -1.3816,-0.1536 -2.0367,-0.2223 -3.9735,-0.4174 -8.114,-0.7928 -12.271,-0.9997 -4.1655,-0.2075 -8.3357,-0.2457 -12.3503,0.0112 -1.4547,0.093 -2.972,0.2383 -4.488,0.4404 -0.9542,0.1272 -1.8984,0.2753 -2.8153,0.4453 0.6712,-0.5068 1.3119,-0.9698 1.8108,-1.3178 3.2841,-2.2901 6.894,-4.1179 10.7251,-5.4603 3.8623,-1.3527 7.9539,-2.2122 12.1686,-2.5532 1.1893,-0.0965 2.6284,0.2106 4.0637,0.7021 2.0121,0.6894 3.9872,1.7324 5.3104,2.564 1.5579,0.9797 2.9647,2.1255 4.2543,3.3819zm15.4378 14.6033c-0.5547,0.0588 -1.107,0.1175 -1.6469,0.1623l-1.7678 -4.0171 -0.0303 -0.0571 -1.6408 -3.1365c1.1056,-0.1598 2.1394,-0.4045 3.1214,-0.7582 1.4152,-0.5097 2.7025,-1.2386 3.916,-2.2549 0.5362,-0.4492 0.8871,-0.9096 1.2121,-1.3686 0.2565,0.2074 0.5488,0.4521 0.7721,0.6394 0.0929,0.0779 0.1633,0.1374 0.3171,0.2618 0.9757,0.7899 1.8512,1.6506 2.7352,2.5196 0.2332,0.2297 0.4675,0.4604 0.6959,0.682 0.4437,0.4306 0.9669,0.9887 1.4894,1.5751 0.5895,0.6614 1.1615,1.3408 1.6097,1.905 0.5189,0.6533 1.7048,2.244 2.6629,3.6644 0.0906,0.1342 0.1787,0.2661 0.2634,0.3949l-0.0221 -0.0035c-1.7353,-0.291 -3.6069,-0.4577 -5.4925,-0.5233 -2.0791,-0.0729 -4.1596,-0.0236 -6.0827,0.1142 -0.6921,0.0495 -1.4046,0.1253 -2.1121,0.2005zm-18.8937 -7.6514c3.1454,0.3506 6.3393,0.7071 9.5273,0.8164 0.0527,0.0875 0.1072,0.1745 0.1614,0.2611 0.0786,0.1259 0.1578,0.2525 0.2316,0.3814l0.0038 0c0.4932,0.8585 1.6749,3.0972 2.6147,5.0652 0.318,0.6666 0.6025,1.2873 0.8111,1.7857 -2.3701,0.3441 -5.3007,0.9569 -8.2613,1.6699 -4.1782,1.0061 -8.4119,2.2122 -11.199,3.1458 -4.7489,1.59 -9.2933,3.2936 -13.6956,5.1925 -4.4149,1.9046 -8.7147,4.0181 -12.9676,6.4257 -2.2705,1.2853 -4.991,2.9423 -7.5654,4.6822 -2.1283,1.4377 -4.1778,2.947 -5.8263,4.372l-0.0153 0.015 -3.3238 3.0028 -0.0264 0.0227c-0.5107,0.4955 -1.0743,1.0787 -1.6118,1.6648l0 0.0036c-0.5478,0.5975 -1.0706,1.1975 -1.4908,1.7154l-0.015 0.0188 -0.1014 0.1309c-0.2216,-1.524 -0.4037,-3.4088 -0.4486,-4.0316 -0.2255,-3.1192 -0.1475,-6.1915 0.2236,-9.2102 0.3748,-3.0449 1.0489,-6.0332 2.0114,-8.9566 0.5552,-1.6866 1.2041,-3.3137 1.9166,-4.854 0.7585,-1.6402 1.5915,-3.1902 2.4637,-4.6187 0.7774,-1.2743 1.4251,-2.2359 2.0982,-3.1513 0.6774,-0.922 1.3825,-1.7989 2.271,-2.8987 0.1204,-0.1489 0.2614,-0.2993 0.3995,-0.4478l-0.0017 -0.0017c0.146,-0.1562 0.2919,-0.3116 0.4285,-0.4766l0.0038 -0.0041 0.0963 -0.1168 0.0034 -0.0038c0.1128,-0.138 0.119,-0.1451 0.5002,-0.2888 5.4631,-2.0591 11.8875,-2.7816 18.4434,-2.8342 6.5993,-0.0529 13.3573,0.575 19.4124,1.2033 0.8649,0.0897 1.8915,0.204 2.9281,0.3197zm26.4508 21.4035c-1.6667,-0.2798 -3.3719,-0.3303 -5.2602,-0.3396l-0.18 -0.7682c-0.5665,-2.4269 -1.1028,-4.7217 -1.9029,-7.1991 -0.1166,-0.3603 -0.228,-0.6731 -0.3406,-0.9904 -0.0741,-0.2071 -0.1479,-0.4155 -0.2177,-0.6187 2.4348,-0.3168 5.397,-0.439 8.3318,-0.3161 3.0139,0.1262 5.9905,0.5124 8.3169,1.2133 0.0692,0.0208 -0.0591,0.0036 -0.0211,0.0906 0.0342,0.078 0.0747,0.1704 0.1471,0.3259l-0.0007 0 1.4649 3.4162c0.993,2.6172 1.7526,5.2979 2.266,8.0417 0.516,2.7569 0.7853,5.5748 0.7943,8.4541 0.0003,0.118 -0.0006,0.2732 -0.0024,0.457 -0.4729,-1.2142 -1.0311,-2.3675 -1.6694,-3.4425 -1.5286,-2.5745 -3.5218,-4.707 -5.9074,-6.1515 -2.008,-1.2162 -3.8799,-1.8467 -5.8186,-2.1727z"/>
 </g>
</svg>
