<?xml version="1.0" encoding="utf-8"?>
<!-- Generator: Adobe Illustrator 14.0.0, SVG Export Plug-In . SVG Version: 6.00 Build 43363)  -->
<!DOCTYPE svg PUBLIC "-//W3C//DTD SVG 1.1//EN" "http://www.w3.org/Graphics/SVG/1.1/DTD/svg11.dtd">
<svg version="1.1" id="Layer_1" xmlns="http://www.w3.org/2000/svg" xmlns:xlink="http://www.w3.org/1999/xlink" x="0px" y="0px"
	 width="453.543px" height="226.771px" viewBox="-166.771 -53.386 453.543 226.771"
	 enable-background="new -166.771 -53.386 453.543 226.771" xml:space="preserve">
<g id="Layer_x0020_1">
	<path fill="#B2B2B2" d="M219.391,127.556v-10.729l-0.226-1.129c-0.159-0.398-0.275-3.117-0.372-5.334
		c-0.046-1.178-0.093-2.236-0.159-2.953c-0.411-4.418-0.991-8.797-1.735-13.047c-0.736-4.211-1.648-8.414-2.733-12.537
		c-2.703-10.258-6.127-19.606-10.367-28.472c-4.246-8.884-9.275-17.225-15.175-25.469l-0.006,0.003
		c-1.52-2.124-4.694-6.188-7.724-9.823c-2.372-2.847-4.681-5.456-6.098-6.722c-0.577-0.514-1.042-0.999-1.546-1.521l-0.007,0.005
		l-0.776-0.812c-0.428-0.433-0.789-0.774-1.141-1.106c-0.405-0.383-0.807-0.76-1.182-1.154l-0.013-0.012
		c-1.655-1.727-3.122-3.007-4.82-4.49l-0.465-0.408l-0.418-0.365c-1.702-1.491-3.182-2.787-4.973-4.227
		c-14.614-11.723-31.053-20.836-48.755-26.887c-17.258-5.902-35.736-8.891-54.912-8.556C12.18-37.422-27.342-19.161-55.886,9.96
		c-28.385,28.957-45.928,68.648-45.865,112.56c0.021,15.273,2.173,30.035,6.167,44.01h15.085c-0.523-1.656-1.028-3.33-1.506-5.029
		c1.463-2.355,3.766-5.49,6.211-8.539c2.548-3.18,5.198-6.197,7.188-8.121h0.01c0.448-0.436,0.866-0.85,1.261-1.242
		c0.654-0.646,1.248-1.234,1.788-1.73v0.002l9.91-8.674l0.006,0.006c5.269-4.313,11.107-8.6,17.169-12.693
		c6.476-4.373,13.171-8.502,19.666-12.178c16.15-9.141,33.896-17.73,52.271-25.225c17.719-7.225,35.969-13.408,53.88-18.061
		c3.706-0.961,16.452-4.04,27.005-6.197c4.811-0.981,9.12-1.765,11.777-2.057c1.111,2.923,2.876,8.712,4.552,14.683
		c1.655,5.912,3.191,11.91,3.892,15.416l-0.408,0.098c-0.823,0.191-1.596,0.377-2.07,0.523v0.01
		c-5.772,1.748-10.752,4.279-15.327,7.316c-4.488,2.979-8.599,6.455-12.699,10.164c-1.218,1.098-3.225,3.076-5.126,5.029
		c-1.741,1.789-3.47,3.639-4.509,4.871c-4.976,5.918-8.86,10.781-12.569,15.773c-3.732,5.023-7.335,10.229-11.728,16.791
		c-4.456,6.664-5.832,8.83-10.537,16.209c-7.056,11.068,2.933-3.461-4.764,7.461h14.521c7.999-11.846-4.688,7.064,2.906-5.039
		c3.175-5.059,0.913-1.393,4.214-6.383c1.682-2.541,3.37-5.09,5.331-8.098c0.657-1.012,1.304-1.988,1.901-2.863
		c0.557-0.822,1.197-1.746,1.903-2.74c2.996-4.213,5.415-7.578,7.989-10.975c2.505-3.311,5.099-6.566,8.46-10.584
		c2.183-2.604,4.392-5.025,6.678-7.33c2.319-2.336,4.728-4.578,7.275-6.785c2.79-2.426,7.428-5.809,12.57-8.469
		c2.671-1.381,5.454-2.559,8.145-3.279c0.152,0.906,0.321,1.838,0.487,2.768c0.216,1.215,0.435,2.422,0.607,3.523
		c0.696,4.402,1.307,9.219,1.818,14.092c0.53,5.07,0.938,10.152,1.204,14.863c0.527,9.297,0.663,18.711,0.354,28.127
		c-0.444,13.521,0.249-1.199-2.239,11.959h12.209c2.315-13.021,1.579,1.785,2.017-11.721c0.641-19.641-0.601-39.439-3.417-58.395
		c-0.146-0.982-0.388-2.25-0.637-3.574c-0.192-1.008-0.392-2.053-0.554-3.029c10.543,0.008,18.79,2.021,25.346,5.684
		c7.14,3.99,12.371,10.02,16.462,17.586c1.974,3.66,3.593,7.703,4.896,11.982c1.427,4.678,2.488,9.701,3.244,14.854l0.104,0.697
		c0.649,4.404,1.615,10.951,0.656,14.441c-3.702,13.484,2.229,0.271-5.557,11.936h16.982c7.086-12.461-0.033,1.818,3.55-11.982
		c1.071-4.135,1.978-8.357,2.7-12.584c0.733-4.25,1.301-8.615,1.692-12.994c0.066-0.74,0.109-1.766,0.152-2.9
		c0.086-2.17,0.192-4.826,0.361-5.248L219.391,127.556z M137.115-1.083c0.89,0.547,1.699,1.06,2.365,1.5
		c-0.305,0.38-0.653,0.766-1.024,1.151c-1.391,1.441-3.029,2.737-4.243,3.477c-2.355,1.433-5,2.473-7.79,3.22
		c-2.85,0.759-5.862,1.216-8.897,1.469l-1.181,0.121h-0.014l0,0c-0.192-0.312-0.435-0.707-0.876-1.375
		c-1.019-1.546-2.1-3.082-3.185-4.54c-1.231-1.655-2.445-3.203-3.563-4.553c-3.695-4.462-7.799-8.875-12.248-12.917
		c-3.013-2.742-6.19-5.313-9.508-7.62l1.267,0.284c8.464,1.932,17.44,4.692,22.56,6.612v0.005c2.916,1.096,5.699,2.251,8.377,3.468
		c2.667,1.216,5.314,2.537,7.966,3.959C128.825-5.906,133.52-3.301,137.115-1.083z M90.753-2.534
		c3.799,3.698,7.285,7.715,10.546,11.905C94.402,8.828,84.337,7.711,77.045,6.9c-2.31-0.255-4.333-0.481-6.387-0.697
		C58.197,4.895,45.213,3.718,32.179,3.068c-13.062-0.65-26.14-0.77-38.729,0.036c-4.562,0.291-9.318,0.747-14.073,1.38
		c-2.992,0.398-5.951,0.862-8.827,1.396c2.103-1.589,4.113-3.042,5.676-4.132c10.301-7.183,21.62-12.914,33.633-17.124
		c12.113-4.242,24.941-6.937,38.159-8.005c3.729-0.303,8.244,0.66,12.742,2.201c6.31,2.162,12.504,5.433,16.654,8.04
		C82.3-10.066,86.709-6.473,90.753-2.534L90.753-2.534z M139.166,43.26c-1.742,0.183-3.474,0.368-5.166,0.507l-5.543-12.593
		l-0.097-0.179l-5.146-9.836c3.467-0.502,6.712-1.269,9.79-2.378c4.438-1.598,8.473-3.883,12.278-7.072
		c1.682-1.408,2.783-2.851,3.802-4.291c0.807,0.65,1.722,1.418,2.422,2.005c0.292,0.244,0.511,0.431,0.995,0.821
		c3.059,2.477,5.803,5.175,8.576,7.901c0.729,0.72,1.466,1.443,2.183,2.138c1.391,1.351,3.032,3.102,4.671,4.94
		c1.849,2.074,3.64,4.207,5.047,5.972c1.629,2.05,5.348,7.04,8.35,11.492c0.285,0.421,0.561,0.836,0.826,1.241l-0.069-0.014
		c-5.441-0.912-11.31-1.433-17.222-1.639c-6.522-0.229-13.045-0.073-19.076,0.358C143.618,42.786,141.382,43.025,139.166,43.26z
		 M79.918,19.268c9.863,1.098,19.879,2.216,29.874,2.558c0.166,0.275,0.339,0.551,0.508,0.819c0.245,0.395,0.494,0.793,0.727,1.198
		h0.01c1.546,2.69,5.255,9.713,8.201,15.884c0.995,2.09,1.888,4.034,2.541,5.6c-7.431,1.075-16.621,2.999-25.903,5.235
		c-13.104,3.155-26.381,6.938-35.119,9.866c-14.893,4.983-29.142,10.325-42.949,16.284C3.963,82.683-9.52,89.312-22.856,96.858
		c-7.119,4.031-15.648,9.227-23.724,14.684c-6.675,4.508-13.101,9.238-18.27,13.711l-0.05,0.047l-10.421,9.416l-0.083,0.072
		c-1.602,1.553-3.37,3.381-5.056,5.219v0.01c-1.719,1.877-3.357,3.756-4.674,5.381l-0.047,0.061l-0.318,0.41
		c-0.693-4.781-1.268-10.689-1.406-12.643c-0.707-9.783-0.462-19.418,0.699-28.883c1.178-9.549,3.291-18.92,6.311-28.086
		c1.738-5.291,3.775-10.395,6.008-15.222c2.379-5.145,4.993-10.005,7.727-14.484c2.438-3.998,4.469-7.01,6.578-9.883
		c2.127-2.89,4.337-5.64,7.123-9.09c0.379-0.464,0.819-0.936,1.254-1.403l-0.006-0.003c0.457-0.491,0.915-0.979,1.343-1.496
		l0.014-0.013l0.302-0.368l0.01-0.01c0.352-0.435,0.372-0.454,1.569-0.905c17.132-6.456,37.276-8.722,57.835-8.888
		c20.694-0.166,41.887,1.803,60.873,3.773C73.448,18.546,76.666,18.904,79.918,19.268L79.918,19.268z M162.863,86.386
		c-5.229-0.877-10.573-1.035-16.495-1.066l-0.564-2.408c-1.778-7.609-3.46-14.807-5.968-22.576
		c-0.365-1.128-0.717-2.109-1.068-3.105c-0.232-0.649-0.465-1.304-0.684-1.94c7.637-0.992,16.926-1.377,26.129-0.992
		c9.448,0.398,18.784,1.606,26.079,3.806c0.216,0.066-0.186,0.01-0.066,0.285c0.106,0.242,0.236,0.534,0.462,1.021h-0.004
		l4.595,10.712c3.115,8.207,5.497,16.615,7.106,25.217c1.619,8.646,2.462,17.48,2.491,26.51c0,0.373-0.003,0.857-0.007,1.434
		c-1.482-3.809-3.234-7.424-5.234-10.795c-4.794-8.072-11.044-14.76-18.525-19.289C174.813,89.384,168.94,87.407,162.863,86.386z"/>
</g>
</svg>
