<?xml version="1.0" encoding="UTF-8"?>
<!DOCTYPE svg PUBLIC "-//W3C//DTD SVG 1.1//EN" "http://www.w3.org/Graphics/SVG/1.1/DTD/svg11.dtd">
<!-- Creator: CorelDRAW -->
<svg xmlns="http://www.w3.org/2000/svg" xml:space="preserve" width="120" height="120" style="shape-rendering:geometricPrecision; text-rendering:geometricPrecision; image-rendering:optimizeQuality; fill-rule:evenodd; clip-rule:evenodd"
viewBox="40 30 130 150">
 <defs>
  <style type="text/css">
   <![CDATA[
    .fil0 {fill:#B2B2B2}
   ]]>
  </style>
 </defs>
 <g id="Layer_x0020_1">
  <metadata id="CorelCorpID_0Corel-Layer"/>
  <path class="fil0" d="M68.7013 114.478c1.7259,-4.5066 3.7971,-9.3392 3.7971,-14.2486 -0.1646,-3.045 -0.5688,-10.3942 0.2972,-13.7499 -1.8408,-1.3887 -6.0615,-4.295 -8.8598,-6.6641 -8.7727,-5.7454 8.2259,-15.8147 14.1527,-22.3316 0.6328,-0.9589 2.3012,-2.6561 2.4642,-3.73 -0.0959,0 -0.1822,0 -0.2684,0 -0.9397,-3.0012 -3.3273,-3.308 -2.7903,-6.5298 -0.2685,-0.0863 -0.537,-0.1726 -0.8054,-0.2589 -0.0288,-1.9177 -0.048,-3.8258 -0.0672,-5.7339 0.163,-0.1726 0.163,-0.1726 0.6041,-0.2589 2.2821,-13.1363 17.8347,-16.3293 24.3069,-4.4011 0.5274,1.7355 0.6616,2.5313 0.7959,2.6656 0.0192,-0.0959 0.0383,-0.1822 0.0671,-0.2685 0.2301,0.0288 0.4603,0.0575 0.6904,0.0959 1.2753,2.3971 1.9081,4.708 1.9081,7.364 0.4123,2.7807 1.7259,5.2066 2.1574,8.016 0.4986,0.1438 1.5054,1.5821 2.167,2.0423 5.5997,6.76 14.9485,9.253 18.9757,17.2402 4.6322,6.1401 -6.55,12.698 -10.4471,15.2234 -5.9065,1.7739 -4.674,2.362 -7.6656,7.8179 -2.8382,3.5573 -7.6037,18.2853 -11.7172,16.5785 -9.8474,1.1603 -19.9345,0.0767 -29.7628,1.1315zm32.3613 -32.8887c0.5082,-1.6684 1.5917,-3.7011 1.8602,-5.3312 2.282,0.1342 2.7711,-3.2026 2.6656,-5.0627 -0.4986,-0.0863 -0.7671,0.0767 -0.9301,0.5369 -0.0959,0 -0.1822,0 -0.2685,0 4.8614,-13.8075 -15.6868,-18.4771 -16.9141,-2.9341 -0.1343,0 -0.2685,0 -0.3932,0 -0.5178,1.7164 -0.0287,3.73 0.1918,5.4655 0.5082,0.3452 0.6424,0.3068 1.2657,0.2685 -0.048,2.0807 -0.4411,4.0463 -0.5274,6.1174 -1.2753,-0.3739 -1.9848,-2.282 -3.9984,-2.7902 -1.5917,-3.193 -7.2681,-2.9053 -8.0544,-5.2641 2.3109,-3.3081 4.008,-8.0448 7.0188,-10.557 2.1095,-2.6272 3.9122,-3.9313 6.3668,-6.0887 1.0164,0 2.541,0.2493 3.3272,-0.537 -0.0479,-0.0479 -0.0958,-0.0863 -0.1342,-0.1246 1.9752,-0.3164 3.8834,-0.2493 5.8874,-0.2397 1.4574,3.0683 3.7395,3.8641 6.2325,6.0983 5.8394,4.2381 8.5913,9.7803 13.5486,14.7375 -2.7327,0.4987 -4.4395,1.5054 -6.4914,3.3752 -2.9437,0 -4.5162,0.3931 -6.923,2.1287 -1.6012,0 -1.6012,0 -3.7299,0.2013z"/>
 </g>
</svg>
