<svg viewBox="20 224 500 92" style="shape-rendering:geometricPrecision; text-rendering:geometricPrecision; image-rendering:optimizeQuality; fill-rule:evenodd; clip-rule:evenodd" width="100%" height="auto" xml:space="preserve" xmlns="http://www.w3.org/2000/svg">
 <defs>
  <style type="text/css">
   
    .fil0 {fill:#CCCCCC}
   
  </style>
 </defs>
 <g id="Layer_x0020_1">
  <metadata id="CorelCorpID_0Corel-Layer"></metadata>
  <path d="M90 239c-1.3807,0 -2.5,1.1193 -2.5,2.5 0,1.3807 1.1193,2.5 2.5,2.5 1.3807,0 2.5,-1.1193 2.5,-2.5 0,-1.3807 -1.1193,-2.5 -2.5,-2.5zm180 0c-1.3807,0 -2.5,1.1193 -2.5,2.5 0,1.3807 1.1193,2.5 2.5,2.5 1.3807,0 2.5,-1.1193 2.5,-2.5 0,-1.3807 -1.1193,-2.5 -2.5,-2.5zm180 0c-1.3807,0 -2.5,1.1193 -2.5,2.5 0,3.2884 5,3.2884 5,0 0,-1.3807 -1.1193,-2.5 -2.5,-2.5zm-415 -13.3275c-8.2843,0 -15,3.3756 -15,11.655l0 27 0 17 0 19c0,8.2804 6.7157,14 15,14l104.592 0c1.0999,0 2.5748,-4.4911 3.1869,-10.2313 0.2537,-2.38 -0.4185,-3.7907 -3.277,-3.612 -2.2588,-0.1708 -6.4631,1.8141 -6.9631,1.8323l-88.5385 1.0045c-1.6533,-0.0065 -3.9935,-2.3467 -3.9935,-4 0,-1.6533 2.3402,-3.9935 3.9935,-3.9935l95.5917 0c1.0999,0 2.5748,-4.4911 3.1869,-10.2313 0.2537,-2.38 -0.4185,-3.7907 -3.277,-3.612 -2.2588,-0.1708 -6.4631,1.8141 -6.9631,1.8323l-88.5385 1.0045c-1.6533,-0.0065 -3.9935,-2.3467 -3.9935,-4 0,-1.6533 2.3402,-3.9935 3.9935,-3.9935l95.5917 0c1.0999,0 2.5748,-4.4911 3.1869,-10.2313 0.2537,-2.38 -0.4185,-3.7907 -3.277,-3.612 -2.2588,-0.1708 -6.4631,1.8141 -6.9631,1.8323l-88.5385 1.0045c-1.6533,-0.0065 -3.9935,-2.3467 -3.9935,-4 0,-1.6533 2.3402,-3.9935 3.9935,-3.9935l212 0c1.6533,0 3.9935,2.3402 3.9935,3.9935 0,1.6533 -2.3402,3.9935 -3.9935,4l-88.5385 -1.0045c-0.5,-0.0182 -4.7043,-2.0031 -6.9631,-1.8323 -2.8585,-0.1787 -3.5307,1.232 -3.277,3.612 0.6121,5.7402 2.087,10.2313 3.1869,10.2313l95.5917 0c1.6533,0 3.9935,2.3402 3.9935,3.9935 0,1.6533 -2.3402,3.9935 -3.9935,4l-88.5385 -1.0045c-0.5,-0.0182 -4.7043,-2.0031 -6.9631,-1.8323 -2.8585,-0.1787 -3.5307,1.232 -3.277,3.612 0.6121,5.7402 2.087,10.2313 3.1869,10.2313l95.5917 0c1.6533,0 3.9935,2.3402 3.9935,3.9935 0,1.6533 -2.3402,3.9935 -3.9935,4l-88.5385 -1.0045c-0.5,-0.0182 -4.7043,-2.0031 -6.9631,-1.8323 -2.8585,-0.1787 -3.5307,1.232 -3.277,3.612 0.6121,5.7402 2.087,10.2313 3.1869,10.2313l219.183 0c1.0999,0 2.575,-4.4911 3.1869,-10.2313 0.2537,-2.3798 -0.4185,-3.7907 -3.277,-3.612 -2.2588,-0.1708 -6.4631,1.8141 -6.9631,1.8323l-88.5385 1.0045c-1.6533,-0.0065 -3.9935,-2.3467 -3.9935,-4 0,-1.6533 2.3402,-3.9935 3.9935,-3.9935l95.5917 0c1.0999,0 2.575,-4.4911 3.1869,-10.2313 0.2537,-2.3798 -0.4185,-3.7907 -3.277,-3.612 -2.2588,-0.1708 -6.4631,1.8141 -6.9631,1.8323l-88.5385 1.0045c-1.6533,-0.0065 -3.9935,-2.3467 -3.9935,-4 0,-1.6533 2.3402,-3.9935 3.9935,-3.9935l95.5917 0c1.0999,0 2.575,-4.4911 3.1869,-10.2313 0.2537,-2.3798 -0.4185,-3.7907 -3.277,-3.612 -2.2588,-0.1708 -6.4631,1.8141 -6.9631,1.8323l-88.5385 1.0045c-1.6533,-0.0065 -3.9935,-2.3467 -3.9935,-4 0,-1.6533 2.3402,-3.9935 3.9935,-3.9935l212 0c1.6533,0 3.9935,2.3402 3.9935,3.9935 0,1.6533 -2.3402,3.9935 -3.9935,4l-88.5385 -1.0045c-0.5,-0.0182 -4.7043,-2.0031 -6.9631,-1.8323 -2.8585,-0.1787 -3.5307,1.2322 -3.277,3.612 0.6119,5.7402 2.087,10.2313 3.1869,10.2313l95.5917 0c1.6533,0 3.9935,2.3402 3.9935,3.9935 0,1.6533 -2.3402,3.9935 -3.9935,4l-88.5385 -1.0045c-0.5,-0.0182 -4.7043,-2.0031 -6.9631,-1.8323 -2.8585,-0.1787 -3.5307,1.2322 -3.277,3.612 0.6119,5.7402 2.087,10.2313 3.1869,10.2313l95.5917 0c1.6533,0 3.9935,2.3402 3.9935,3.9935 0,1.6533 -2.3402,3.9935 -3.9935,4l-88.5385 -1.0045c-0.5,-0.0182 -4.7043,-2.0031 -6.9631,-1.8323 -2.8585,-0.1787 -3.5307,1.2322 -3.277,3.612 0.6119,5.7402 2.087,10.2313 3.1869,10.2313l104.592 0c8.2843,0 15,-5.7188 15,-14l0 -19 0 -10.2998 0 -33.7002c0,-7.8391 -6.0188,-11.2805 -13.6891,-11.6254l-471.311 -0.0296z" class="fil0"></path>
 </g>
</svg>
