<?xml version="1.0" encoding="UTF-8"?>
<!DOCTYPE svg PUBLIC "-//W3C//DTD SVG 1.1//EN" "http://www.w3.org/Graphics/SVG/1.1/DTD/svg11.dtd">
<!-- Creator: CorelDRAW X7 -->
<svg xmlns="http://www.w3.org/2000/svg" xml:space="preserve" width="86.1841mm" height="75.0005mm" version="1.1" style="shape-rendering:geometricPrecision; text-rendering:geometricPrecision; image-rendering:optimizeQuality; fill-rule:evenodd; clip-rule:evenodd"
viewBox="0 0 8618 7500"
 xmlns:xlink="http://www.w3.org/1999/xlink">
 <defs>
  <style type="text/css">
   <![CDATA[
    .fil0 {fill:#2E2E2D}
   ]]>
  </style>
 </defs>
 <g id="Layer_x0020_1">
  <metadata id="CorelCorpID_0Corel-Layer"/>
  <path id="always_x0020_manji.cdr" class="fil0" d="M5776 6744l8 -576c412,-1627 -147,-1402 1125,-2656 346,-342 277,-371 657,-302 217,40 175,78 394,150 190,421 192,1257 112,1743 -67,404 -447,1469 -624,1843l-1672 -202zm-4874 -65c-110,-238 -338,-1210 -72,-1366 109,-64 295,-75 385,-68 259,19 514,104 783,154 467,88 1262,1025 1545,1448l-2641 -168zm7151 669c-4207,139 -3335,-139 -7419,152l-165 -1243c-242,-470 -351,-907 -429,-1345 -83,-472 -26,-1126 74,-1594 101,-475 345,-1028 633,-1439l119 -207 406 -453c215,-92 1108,-1150 2812,-1216 404,-15 945,20 1437,172 971,299 1849,931 2399,1791 670,1048 874,2264 542,3478 -51,186 -163,509 -306,809l-237 621 134 474zm-3563 -6964c255,-50 861,95 1197,211 439,150 843,378 1244,705 -508,275 -463,-89 -1283,-317 -879,-244 -729,32 -1158,-599zm-939 1689c326,-356 649,-469 1026,-754 734,-551 2639,614 2218,1572 -115,262 -865,815 -1104,894 -410,134 -1046,13 -1507,-177 -269,-110 -347,-98 -439,-389 -117,-373 -148,-807 -194,-1146zm-3071 1110c-46,-339 834,-1642 1304,-1897 37,205 -529,811 -642,970 -110,155 -554,892 -662,927zm2566 -1111c95,47 142,412 170,548 81,393 118,727 29,1179 -247,436 -264,656 -586,1039 -227,270 -322,285 -585,262 -191,-17 -1043,-176 -1167,-374 -100,-160 -139,-575 -191,-776 -119,-462 131,-766 488,-1238 159,-210 335,-428 501,-634 86,-106 179,-218 301,-282 122,-64 110,-80 242,-44 354,98 448,146 798,320z"/>
 </g>
</svg>
