<?xml version="1.0" encoding="UTF-8"?>
<svg xmlns="http://www.w3.org/2000/svg" xml:space="preserve" width="50" height="50" style="shape-rendering:geometricPrecision; text-rendering:geometricPrecision; image-rendering:optimizeQuality; fill-rule:evenodd; clip-rule:evenodd" viewBox="0 0 5003 7500">
    <path fill="#C0C0C0" d="M746 2558c43,336 113,546 130,943 5,107 -28,185 -41,293 -154,-32 -131,-121 -191,-305 -57,-176 -64,-217 -81,-420 -30,-367 -231,-567 14,-508 131,32 62,10 169,-3zm1435 -1470c-9,-152 63,-184 101,-288 45,-124 12,-215 13,-350 1,-208 -156,-419 -345,-446 -214,-31 -449,142 -495,300 -70,244 -17,541 1,724 -68,28 -150,99 -222,143 -89,53 -150,74 -248,121 -199,95 -269,169 -381,337 -192,289 -128,183 -319,418 -78,96 -77,119 -133,235 -26,55 -47,59 -75,109 -223,398 86,904 246,1217 37,73 100,175 115,255 16,80 -3,107 0,181 3,66 23,97 31,152 23,151 7,171 126,245 66,41 134,72 208,22l48 -44c39,120 43,15 110,135 165,291 57,148 323,377 107,93 90,208 227,252 125,40 90,58 198,151l68 61c-87,6 -251,26 -337,6 -88,-20 -129,-98 -246,-52 -187,75 -93,370 -46,511 62,189 75,360 174,507 69,103 209,264 371,286 -44,164 -106,218 -50,424 75,274 320,446 620,411 151,-17 253,-104 330,-185 372,-390 -36,-1208 -756,-808l-119 -489c185,40 379,126 577,161 121,21 555,4 659,-30 176,-59 244,-284 169,-502 -31,-91 -75,-163 -122,-228 -46,-62 -130,-143 -153,-198 193,55 285,340 421,446 104,81 100,120 148,274 204,655 170,378 422,851 54,100 103,177 146,277 122,285 34,259 79,341 80,118 334,49 464,73 112,19 345,55 456,0 78,-146 -123,-195 -221,-252 -540,-319 -286,-82 -554,-956 -219,-714 -483,-755 -594,-1194 -100,-399 -253,-557 -308,-703 -69,-186 -266,-368 -304,-453 -46,-102 -2,-89 -93,-166 -69,-58 -56,-40 -95,-144 -59,-159 -126,-172 -245,-271 -96,-80 -46,-55 -82,-178 -24,-81 -45,-43 -69,-170 -42,-223 -24,-217 13,-430 20,-113 41,-322 89,-412 284,8 219,103 395,291 205,218 642,235 866,479 221,241 260,171 492,174l56 179c129,23 136,-31 179,-127 53,-118 18,-141 -32,-238 -159,-305 -317,-123 -389,-141 -149,-35 -445,-528 -686,-664 -132,-76 -160,-80 -253,-189 -62,-72 -173,-152 -224,-237 -61,-102 -21,-79 -159,-284 -165,-248 -306,-180 -586,-297z"/>
</svg>